<?xml version="1.0" encoding="utf-8"?>
<svg version="1.1" xmlns:xlink="http://www.w3.org/1999/xlink" width="18px" height="18px" preserveAspectRatio="xMinYMid meet" viewBox="2760 1520  18 16" xmlns="http://www.w3.org/2000/svg">
  <path d="M 2769.5 1482  L 2769.5 1531  " stroke-width="1" stroke="#ff0000" fill="none" />
  <path d="M 2769.5 1481  A 3 3 0 0 0 2766.5 1484 A 3 3 0 0 0 2769.5 1487 A 3 3 0 0 0 2772.5 1484 A 3 3 0 0 0 2769.5 1481 Z M 2769.5 1526  A 3 3 0 0 0 2766.5 1529 A 3 3 0 0 0 2769.5 1532 A 3 3 0 0 0 2772.5 1529 A 3 3 0 0 0 2769.5 1526 Z " fill-rule="nonzero" fill="#ff0000" stroke="none" />
</svg>