<?xml version="1.0" encoding="utf-8"?>
<svg version="1.1" xmlns:xlink="http://www.w3.org/1999/xlink" width="10px" height="55px" preserveAspectRatio="xMidYMin meet" viewBox="2765 1694  8 55" xmlns="http://www.w3.org/2000/svg">
  <path d="M 2769.5 1695  L 2769.5 1744  " stroke-width="1" stroke="#ff0000" fill="none" />
  <path d="M 2769.5 1694  A 3 3 0 0 0 2766.5 1697 A 3 3 0 0 0 2769.5 1700 A 3 3 0 0 0 2772.5 1697 A 3 3 0 0 0 2769.5 1694 Z M 2769.5 1739  A 3 3 0 0 0 2766.5 1742 A 3 3 0 0 0 2769.5 1745 A 3 3 0 0 0 2772.5 1742 A 3 3 0 0 0 2769.5 1739 Z " fill-rule="nonzero" fill="#ff0000" stroke="none" />
</svg>