<?xml version="1.0" encoding="utf-8"?>
<svg version="1.1" xmlns:xlink="http://www.w3.org/1999/xlink" width="10px" height="55px" preserveAspectRatio="xMidYMin meet" viewBox="3006 1481  8 55" xmlns="http://www.w3.org/2000/svg">
  <path d="M 3010.5 1482  L 3010.5 1531  " stroke-width="1" stroke="#ff0000" fill="none" />
  <path d="M 3010.5 1481  A 3 3 0 0 0 3007.5 1484 A 3 3 0 0 0 3010.5 1487 A 3 3 0 0 0 3013.5 1484 A 3 3 0 0 0 3010.5 1481 Z M 3010.5 1526  A 3 3 0 0 0 3007.5 1529 A 3 3 0 0 0 3010.5 1532 A 3 3 0 0 0 3013.5 1529 A 3 3 0 0 0 3010.5 1526 Z " fill-rule="nonzero" fill="#ff0000" stroke="none" />
</svg>