<?xml version="1.0" encoding="utf-8"?>
<svg version="1.1" xmlns:xlink="http://www.w3.org/1999/xlink" width="18px" height="18px" preserveAspectRatio="xMinYMid meet" viewBox="3001 1733  18 16" xmlns="http://www.w3.org/2000/svg">
  <path d="M 3010.5 1695  L 3010.5 1744  " stroke-width="1" stroke="#ff0000" fill="none" />
  <path d="M 3010.5 1694  A 3 3 0 0 0 3007.5 1697 A 3 3 0 0 0 3010.5 1700 A 3 3 0 0 0 3013.5 1697 A 3 3 0 0 0 3010.5 1694 Z M 3010.5 1739  A 3 3 0 0 0 3007.5 1742 A 3 3 0 0 0 3010.5 1745 A 3 3 0 0 0 3013.5 1742 A 3 3 0 0 0 3010.5 1739 Z " fill-rule="nonzero" fill="#ff0000" stroke="none" />
</svg>