<?xml version="1.0" encoding="utf-8"?>
<svg version="1.1" xmlns:xlink="http://www.w3.org/1999/xlink" width="76px" height="76px" xmlns="http://www.w3.org/2000/svg">
  <g transform="matrix(1 0 0 1 -371 -71 )">
    <path d="M 74.29296875 44.8033854166667  C 74.6063368055556 45.1167534722222  74.7630208333333 45.4878472222222  74.7630208333333 45.9166666666667  C 74.7630208333333 46.0815972222222  74.7465277777778 46.1970486111111  74.7135416666667 46.2630208333333  C 72.6024305555556 55.1032986111111  68.1822916666667 62.26953125  61.453125 67.76171875  C 54.7239583333333 73.25390625  46.8402777777778 76  37.8020833333333 76  C 32.9861111111111 76  28.3268229166667 75.0928819444444  23.82421875 73.2786458333333  C 19.3216145833333 71.4644097222222  15.3055555555556 68.875  11.7760416666667 65.5104166666667  L 5.39322916666667 71.8932291666667  C 4.76649305555556 72.5199652777778  4.02430555555556 72.8333333333333  3.16666666666667 72.8333333333333  C 2.30902777777778 72.8333333333333  1.56684027777778 72.5199652777778  0.940104166666667 71.8932291666667  C 0.313368055555556 71.2664930555556  0 70.5243055555556  0 69.6666666666667  L 0 47.5  C 0 46.6423611111111  0.313368055555556 45.9001736111111  0.940104166666667 45.2734375  C 1.56684027777778 44.6467013888889  2.30902777777778 44.3333333333333  3.16666666666667 44  L 25.3333333333333 44  C 26.1909722222222 44.3333333333333  26.9331597222222 44.6467013888889  27.5598958333333 45.2734375  C 28.1866319444445 45.9001736111111  28.5 46.6423611111111  28.5 47.5  C 28.5 48.3576388888889  28.1866319444445 49.0998263888889  27.5598958333333 49.7265625  L 20.78125 56.5052083333333  C 23.1232638888889 58.6822916666667  25.7786458333333 60.3645833333333  28.7473958333333 61.5520833333333  C 31.7161458333333 62.7395833333333  34.8003472222222 63.3333333333333  38 63.3333333333333  C 42.4201388888889 63.3333333333333  46.5434027777778 62.2612847222222  50.3697916666667 60.1171875  C 54.1961805555556 57.9730902777778  57.2638888888889 55.0208333333333  59.5729166666667 51.2604166666667  C 59.9357638888889 50.6996527777778  60.8098958333333 48.7699652777778  62.1953125 45.4713541666667  C 62.4592013888889 44.7126736111111  62.9539930555556 44.3333333333333  63.6796875 44.3333333333333  L 73.1796875 44.3333333333333  C 73.6085069444444 44.3333333333333  73.9796006944444 44.4900173611111  74.29296875 44.8033854166667  Z M 75.0598958333333 4.10677083333334  C 75.6866319444444 4.73350694444444  76 5.47569444444444  76 6.33333333333334  L 76 28.5  C 76 29.3576388888889  75.6866319444444 30.0998263888889  75.0598958333333 30.7265625  C 74.4331597222222 31.3532986111111  73.6909722222222 31.6666666666667  72.8333333333333 32  L 50.6666666666667 32  C 49.8090277777778 31.6666666666667  49.0668402777778 31.3532986111111  48.4401041666667 30.7265625  C 47.8133680555556 30.0998263888889  47.5 29.3576388888889  47.5 28.5  C 47.5 27.6423611111111  47.8133680555556 26.9001736111111  48.4401041666667 26.2734375  L 55.2682291666667 19.4453125  C 50.3862847222222 14.9262152777778  44.6302083333333 12.6666666666667  38 12.6666666666667  C 33.5798611111111 12.6666666666667  29.4565972222222 13.7387152777778  25.6302083333333 15.8828125  C 21.8038194444445 18.0269097222222  18.7361111111111 20.9791666666667  16.4270833333333 24.7395833333333  C 16.0642361111111 25.3003472222222  15.1901041666667 27.2300347222222  13.8046875 30.5286458333333  C 13.5407986111111 31.2873263888889  13.0460069444444 31.6666666666667  12.3203125 31.6666666666667  L 2.47395833333333 31.6666666666667  C 2.04513888888889 31.6666666666667  1.67404513888889 31.5099826388889  1.36067708333333 31.1966145833333  C 1.04730902777778 30.8832465277778  0.890625 30.5121527777778  0.890625 30.0833333333333  L 0.890625 29.7369791666667  C 3.03472222222222 20.8967013888889  7.48784722222222 13.73046875  14.25 8.23828125  C 21.0121527777778 2.74609375  28.9288194444445 0  38 0  C 42.8159722222222 0  47.5 0.915364583333336  52.0520833333333 2.74609375  C 56.6041666666667 4.57682291666666  60.6449652777778 7.1579861111111  64.1744791666667 10.4895833333333  L 70.6067708333333 4.10677083333334  C 71.2335069444444 3.48003472222222  71.9756944444444 3.16666666666666  72.8333333333333 3.16666666666666  C 73.6909722222222 3.16666666666666  74.4331597222222 3.48003472222222  75.0598958333333 4.10677083333334  Z " fill-rule="nonzero" fill="#fffbfb" stroke="none" transform="matrix(1 0 0 1 371 71 )" />
  </g>
</svg>