<?xml version="1.0" encoding="utf-8"?>
<svg version="1.1" xmlns:xlink="http://www.w3.org/1999/xlink" width="35px" height="20px" xmlns="http://www.w3.org/2000/svg">
  <g transform="matrix(1 0 0 1 -52 -597 )">
    <path d="M 52 597  L 87 597  L 87 617  L 52 617  L 52 597  " fill-rule="nonzero" fill="#cccccc" stroke="none" />
    <path d="M 53 598  L 86 598  L 86 616  L 53 616  L 53 598  " fill-rule="nonzero" fill="#ffffff" stroke="none" />
    <path d="M 71.7 603  C 70.86 603  70.2 602.34  70.2 601.5  C 70.2 600.66  70.86 600  71.7 600  C 72.54 600  73.2 600.66  73.2 601.5  C 73.2 602.34  72.54 603  71.7 603  " fill-rule="nonzero" fill="#cccccc" stroke="none" />
    <path d="M 54 616  L 54 606.65  L 62 602.4  L 73.2 610.171428571429  L 79.6 604.95  L 86 610.171428571429  L 86 616  L 54 616  " fill-rule="nonzero" fill="#169bd5" stroke="none" />
  </g>
</svg>