<?xml version="1.0" encoding="utf-8"?>
<svg version="1.1" xmlns:xlink="http://www.w3.org/1999/xlink" width="54px" height="54px" xmlns="http://www.w3.org/2000/svg">
  <g transform="matrix(1 0 0 1 -146 -370 )">
    <path d="M 173 370  C 188.12 370  200 381.88  200 397  C 200 412.12  188.12 424  173 424  C 157.88 424  146 412.12  146 397  C 146 381.88  157.88 370  173 370  Z " fill-rule="nonzero" fill="#ffffff" stroke="none" />
    <path d="M 173 370.5  C 187.84 370.5  199.5 382.16  199.5 397  C 199.5 411.84  187.84 423.5  173 423.5  C 158.16 423.5  146.5 411.84  146.5 397  C 146.5 382.16  158.16 370.5  173 370.5  Z " stroke-width="1" stroke="#797979" fill="none" />
  </g>
</svg>