<?xml version="1.0" encoding="utf-8"?>
<svg version="1.1" xmlns:xlink="http://www.w3.org/1999/xlink" width="43px" height="50px" xmlns="http://www.w3.org/2000/svg">
  <g transform="matrix(1 0 0 1 -3073 -2052 )">
    <path d="M 32.3619791666667 1.89732142857143  L 41.0963541666667 10.6026785714286  C 41.6189236111111 11.1235119047619  42.0668402777778 11.8303571428571  42.4401041666667 12.7232142857143  C 42.8133680555556 13.6160714285714  43 14.4345238095238  43 15.1785714285714  L 43 47.3214285714286  C 43 48.0654761904762  42.7387152777778 48.6979166666667  42.2161458333333 49.21875  C 41.6935763888889 49.7395833333333  41.0590277777778 50  40.3125 50  L 2.6875 50  C 1.94097222222222 50  1.30642361111111 49.7395833333333  0.783854166666667 49.21875  C 0.261284722222222 48.6979166666667  0 48.0654761904762  0 47.3214285714286  L 0 2.67857142857143  C 0 1.93452380952381  0.261284722222222 1.30208333333333  0.783854166666667 0.78125  C 1.30642361111111 0.260416666666669  1.94097222222222 0  2.6875 0  L 27.7708333333333 0  C 28.5173611111111 0  29.3385416666667 0.186011904761907  30.234375 0.558035714285715  C 31.1302083333333 0.930059523809523  31.8394097222222 1.37648809523809  32.3619791666667 1.89732142857143  Z M 29.814453125 4.40848214285715  C 29.5904947916667 4.18526785714286  29.2078993055556 3.98065476190476  28 3.79464285714286  L 28 15  L 39.1927083333333 15  C 39.0060763888889 13.7462797619048  38.80078125 13.3649553571429  38.5768229166667 13.1417410714286  L 29.814453125 4.40848214285715  Z M 4 46  L 39 46  L 39 18  L 27.7708333333333 18  C 27.0243055555556 17.8571428571429  26.3897569444444 17.5967261904762  25.8671875 17.0758928571429  C 25.3446180555556 16.5550595238095  25.0833333333333 15.922619047619  25 15.1785714285714  L 25 4  L 4 4  L 4 46  Z M 16.376953125 23.9118303571429  C 16.6755642361111 23.6328125  17.0021701388889 23.5677083333333  17.3567708333333 23.7165178571429  C 17.7300347222222 23.8653273809524  17.9166666666667 24.1443452380952  18 24.5535714285714  L 18 39.7321428571429  C 17.9166666666667 40.141369047619  17.7300347222222 40.4203869047619  17.3567708333333 40.5691964285714  C 17.2074652777778 40.6063988095238  17.0954861111111 40.625  17.0208333333333 40.625  C 16.796875 40.625  16.5822482638889 40.5412946428571  16.376953125 40.3738839285714  L 11.7298177083333 35.7142857142857  L 8.0625 35.7142857142857  C 7.80121527777778 35.7142857142857  7.58658854166667 35.6305803571429  7.41861979166667 35.4631696428571  C 7.25065104166667 35.2957589285714  7.16666666666667 35.0818452380952  7.16666666666667 34.8214285714286  L 7.16666666666667 29.4642857142857  C 7.16666666666667 29.203869047619  7.25065104166667 28.9899553571429  7.41861979166667 28.8225446428571  C 7.58658854166667 28.6551339285714  7.80121527777778 28.5714285714286  8.0625 28.5714285714286  L 11.7298177083333 28.5714285714286  L 16.376953125 23.9118303571429  Z M 27.9108072916667 42.5223214285714  C 28.2467447916667 42.8013392857143  28.6200086805556 42.9408482142857  29.0305989583333 42.9408482142857  C 29.6091579861111 42.9408482142857  30.0757378472222 42.7176339285714  30.4303385416667 42.2712053571429  C 32.837890625 39.3136160714286  34.0416666666667 35.9375  34.0416666666667 32.1428571428571  C 34.0416666666667 28.3482142857143  32.837890625 24.9720982142857  30.4303385416667 22.0145089285714  C 30.1317274305556 21.6238839285714  29.73046875 21.4006696428571  29.2265625 21.3448660714286  C 28.72265625 21.2890625  28.2840711805556 21.4192708333333  27.9108072916667 21.7354910714286  C 27.5188802083333 22.0517113095238  27.2995876736111 22.4562872023809  27.2529296875 22.94921875  C 27.2062717013889 23.442150297619  27.3415798611111 23.8839285714286  27.6588541666667 24.2745535714286  C 29.5251736111111 26.5625  30.4583333333333 29.1852678571429  30.4583333333333 32.1428571428571  C 30.4583333333333 35.1004464285714  29.5251736111111 37.7232142857143  27.6588541666667 40.0111607142857  C 27.3415798611111 40.4017857142857  27.2062717013889 40.8435639880952  27.2529296875 41.3364955357143  C 27.2995876736111 41.8294270833333  27.5188802083333 42.2247023809524  27.9108072916667 42.5223214285714  Z M 21.8919270833333 38.3370535714286  C 22.2651909722222 38.6532738095238  22.67578125 38.8113839285714  23.1236979166667 38.8113839285714  C 23.6276041666667 38.8113839285714  24.0661892361111 38.6253720238095  24.439453125 38.2533482142857  C 26.0631510416667 36.5234375  26.875 34.4866071428571  26.875 32.1428571428571  C 26.875 29.7991071428571  26.0631510416667 27.7622767857143  24.439453125 26.0323660714286  C 24.103515625 25.678943452381  23.68359375 25.492931547619  23.1796875 25.4743303571429  C 22.67578125 25.4557291666667  22.2465277777778 25.6138392857143  21.8919270833333 25.9486607142857  C 21.5373263888889 26.2834821428571  21.3506944444444 26.6973586309524  21.33203125 27.1902901785714  C 21.3133680555556 27.6832217261905  21.4813368055556 28.1156994047619  21.8359375 28.4877232142857  C 22.8064236111111 29.5479910714286  23.2916666666667 30.766369047619  23.2916666666667 32.1428571428571  C 23.2916666666667 33.5193452380952  22.8064236111111 34.7377232142857  21.8359375 35.7979910714286  C 21.4813368055556 36.1700148809524  21.3133680555556 36.6024925595238  21.33203125 37.0954241071429  C 21.3506944444444 37.5883556547619  21.5373263888889 38.0022321428571  21.8919270833333 38.3370535714286  Z " fill-rule="nonzero" fill="#000000" stroke="none" transform="matrix(1 0 0 1 3073 2052 )" />
  </g>
</svg>