<?xml version="1.0" encoding="utf-8"?>
<svg version="1.1" xmlns:xlink="http://www.w3.org/1999/xlink" width="46px" height="50px" xmlns="http://www.w3.org/2000/svg">
  <g transform="matrix(1 0 0 1 -3077 -919 )">
    <path d="M 27.4898710865562 39.53125  C 28.5911602209945 37.438446969697  29.0570902394107 35.1988636363636  28.8876611418048 32.8125  L 31.767955801105 38.6079545454545  C 30.6760793943114 41.9981060606061  28.6994065889094 44.7443181818182  25.8379373848987 46.8465909090909  C 22.9764681808881 48.9488636363636  19.7855535093104 50  16.2651933701657 50  C 13.3284223449969 50  10.6128504194803 49.2660984848485  8.11847759361572 47.7982954545455  C 5.62410476775118 46.3304924242424  3.64743196234909 44.3418560606061  2.18845917740945 41.8323863636364  C 0.729486392469818 39.3229166666667  0 36.5909090909091  0 33.6363636363636  C 0 30.2083333333333  0.983630038878658 27.0833333333333  2.95089011663597 24.2613636363636  C 4.91815019439329 21.4393939393939  7.50194393288316 19.4412878787879  10.7022713321056 18.2670454545455  L 11.1823204419889 21.9886363636364  C 8.88561489666462 23.0113636363636  7.05013300593411 24.5785984848485  5.67587476979742 26.6903409090909  C 4.30161653366073 28.8020833333333  3.61448741559239 31.1174242424242  3.61448741559239 33.6363636363636  C 3.61448741559239 37.1401515151515  4.85226110087989 40.1373106060606  7.32780847145488 42.6278409090909  C 9.80335584202988 45.1183712121212  12.7824841416002 46.3636363636364  16.2651933701657 46.3636363636364  C 18.6372007366483 46.3636363636364  20.8256599140577 45.7481060606061  22.8305709023941 44.5170454545455  C 24.8354818907305 43.2859848484849  26.3885819521179 41.624053030303  27.4898710865562 39.53125  Z M 38.7710251688152 38.4659090909091  L 44.3621853898097 35.6534090909091  L 46 38.8920454545455  L 38.7710251688152 42.5284090909091  C 38.5262942500512 42.6609848484849  38.2533251483528 42.7272727272727  37.9521178637201 42.7272727272727  C 37.1990996521383 42.7272727272727  36.6625741763863 42.3958333333333  36.3425414364641 41.7329545454545  L 29.5936157151627 28  L 16.2651933701657 28  C 15.8133824432167 28.1818181818182  15.4133415183139 28.0255681818182  15.0650705954573 27.7130681818182  C 14.7167996726008 27.4005681818182  14.5144260282382 27.0170454545455  14.4579496623696 26.5625  L 11.7470841006753 4.43181818181818  C 11.7094331900962 4.10984848484848  11.7659095559648 3.71212121212121  11.9165131982812 3.23863636363637  C 12.1800695723348 2.27272727272727  12.7165950480868 1.49147727272727  13.5260896255371 0.894886363636366  C 14.3355842029875 0.298295454545455  15.2486187845304 0  16.2651933701657 0  C 17.5076734192756 0  18.5713116431348 0.445075757575752  19.4561080417434 1.33522727272727  C 20.340904440352 2.22537878787878  20.7833026396562 3.29545454545455  20.7833026396562 4.54545454545455  C 20.7833026396562 5.85227272727273  20.2938408021281 6.96496212121211  19.3149171270718 7.88352272727273  C 18.3359934520156 8.80208333333333  17.2064661346429 9.19507575757575  15.926335174954 9.0625  L 16.9711479435236 18  L 28.9158993247391 18  L 28.9158993247391 21  L 17.4229588704727 21  L 17.8747697974217 25  L 30.7231430325353 25  C 31.476161244117 24.5454545454545  32.012686719869 24.8768939393939  32.3327194597913 25.5397727272727  L 38.7710251688152 38.4659090909091  Z " fill-rule="nonzero" fill="#000000" stroke="none" transform="matrix(1 0 0 1 3077 919 )" />
  </g>
</svg>