<?xml version="1.0" encoding="utf-8"?>
<svg version="1.1" xmlns:xlink="http://www.w3.org/1999/xlink" width="50px" height="44px" xmlns="http://www.w3.org/2000/svg">
  <g transform="matrix(1 0 0 1 -3080 -788 )">
    <path d="M 50 0  L 50 9.42857142857143  L 46 9.42857142857143  L 46 34.5714285714286  L 50 34.5714285714286  L 50 44  L 40.625 44  L 40.625 40  L 9.375 40  L 9.375 44  L 0 44  L 0 34.5714285714286  L 4 34.5714285714286  L 4 9.42857142857143  L 0 9.42857142857143  L 0 0  L 9.375 0  L 9.375 4  L 40.625 4  L 40.625 0  L 50 0  Z M 46.875 3.14285714285714  L 43.75 3.14285714285714  L 43.75 6.28571428571429  L 46.875 6.28571428571429  L 46.875 3.14285714285714  Z M 6.25 3.14285714285714  L 3.125 3.14285714285714  L 3.125 6.28571428571429  L 6.25 6.28571428571429  L 6.25 3.14285714285714  Z M 3.125 40.8571428571429  L 6.25 40.8571428571429  L 6.25 37.7142857142857  L 3.125 37.7142857142857  L 3.125 40.8571428571429  Z M 9.375 37  L 40.625 37  L 40.625 34.5714285714286  L 43 34.5714285714286  L 43 9.42857142857143  L 40.625 9.42857142857143  L 40.625 7  L 9.375 7  L 9.375 9.42857142857143  L 7 9.42857142857143  L 7 34.5714285714286  L 9.375 34.5714285714286  L 9.375 37  Z M 43.75 40.8571428571429  L 46.875 40.8571428571429  L 46.875 37.7142857142857  L 43.75 37.7142857142857  L 43.75 40.8571428571429  Z M 31.25 10  L 31.25 15.7142857142857  L 40 15.7142857142857  L 40 34  L 18.75 34  L 18.75 28.2857142857143  L 10 28.2857142857143  L 10 10  L 31.25 10  Z M 13 13  L 13 25  L 28 25  L 28 13  L 13 13  Z M 21.875 31  L 37 31  L 37 18.8571428571429  L 31.25 18.8571428571429  L 31.25 28.2857142857143  L 21.875 28.2857142857143  L 21.875 31  Z " fill-rule="nonzero" fill="#000000" stroke="none" transform="matrix(1 0 0 1 3080 788 )" />
  </g>
</svg>