<?xml version="1.0" encoding="utf-8"?>
<svg version="1.1" xmlns:xlink="http://www.w3.org/1999/xlink" width="75px" height="75px" xmlns="http://www.w3.org/2000/svg">
  <g transform="matrix(1 0 0 1 -139 -283 )">
    <path d="M 176.5 283  C 197.5 283  214 299.5  214 320.5  C 214 341.5  197.5 358  176.5 358  C 155.5 358  139 341.5  139 320.5  C 139 299.5  155.5 283  176.5 283  Z " fill-rule="nonzero" fill="#ffffff" stroke="none" />
    <path d="M 176.5 283.5  C 197.22 283.5  213.5 299.78  213.5 320.5  C 213.5 341.22  197.22 357.5  176.5 357.5  C 155.78 357.5  139.5 341.22  139.5 320.5  C 139.5 299.78  155.78 283.5  176.5 283.5  Z " stroke-width="1" stroke="#797979" fill="none" />
  </g>
</svg>