<?xml version="1.0" encoding="utf-8"?>
<svg version="1.1" xmlns:xlink="http://www.w3.org/1999/xlink" width="300px" height="170px" xmlns="http://www.w3.org/2000/svg">
  <g transform="matrix(1 0 0 1 -34 -112 )">
    <path d="M 34 112  L 334 112  L 334 282  L 34 282  L 34 112  " fill-rule="nonzero" fill="#cccccc" stroke="none" />
    <path d="M 46 124  L 322 124  L 322 270  L 46 270  L 46 124  " fill-rule="nonzero" fill="#ffffff" stroke="none" />
    <path d="M 202.75 163  C 195.61 163  190 157.39  190 150.25  C 190 143.11  195.61 137.5  202.75 137.5  C 209.89 137.5  215.5 143.11  215.5 150.25  C 215.5 157.39  209.89 163  202.75 163  " fill-rule="nonzero" fill="#cccccc" stroke="none" />
    <path d="M 51 266  L 51 190.65  L 117.75 156.4  L 211.2 219.42  L 264.6 176.95  L 318 219.42  L 318 266  L 51 266  " fill-rule="nonzero" fill="#169bd5" stroke="none" />
  </g>
</svg>